<svg width="32" height="32" viewBox="0 0 32 32" fill="none" xmlns="http://www.w3.org/2000/svg">
<path d="M8 0.125H24C28.3492 0.125 31.875 3.65076 31.875 8V24C31.875 28.3492 28.3492 31.875 24 31.875H8C3.65076 31.875 0.125 28.3492 0.125 24V8C0.125 3.65076 3.65076 0.125 8 0.125Z" fill="white"/>
<path d="M8 0.125H24C28.3492 0.125 31.875 3.65076 31.875 8V24C31.875 28.3492 28.3492 31.875 24 31.875H8C3.65076 31.875 0.125 28.3492 0.125 24V8C0.125 3.65076 3.65076 0.125 8 0.125Z" stroke="#E4E7EC" stroke-width="0.25"/>
<path fill-rule="evenodd" clip-rule="evenodd" d="M22.2454 7.27043L22.5076 7.56625L22.6552 7.48408L22.2454 7.27043Z" fill="#DC0032"/>
<path fill-rule="evenodd" clip-rule="evenodd" d="M21.8521 7.05679L22.3602 7.64843L22.5405 7.54983L22.3438 7.31974L21.8521 7.05679Z" fill="#DC0032"/>
<path fill-rule="evenodd" clip-rule="evenodd" d="M21.4421 6.84314L22.2126 7.7306L22.3929 7.63199L21.9503 7.10609L21.4421 6.84314Z" fill="#DC0032"/>
<path fill-rule="evenodd" clip-rule="evenodd" d="M21.0491 6.62947L22.0654 7.81275L22.2458 7.71414L21.5409 6.89242L21.0491 6.62947ZM22.9998 8.71662L22.8851 8.78236L22.9998 8.91383V8.71662Z" fill="#DC0032"/>
<path fill-rule="evenodd" clip-rule="evenodd" d="M20.6555 6.41585L21.9178 7.89495L22.0981 7.79634L21.1473 6.6788L20.6555 6.41585ZM22.9341 8.74951L22.7538 8.86456L22.9997 9.16038V8.84812L22.9341 8.74951Z" fill="#DC0032"/>
<path fill-rule="evenodd" clip-rule="evenodd" d="M20.2456 6.20219L21.7702 7.97711L21.9669 7.87851L20.7538 6.46515L20.2456 6.20219ZM22.7865 8.83168L22.6062 8.94672L22.9996 9.40689V9.09463L22.7865 8.83168Z" fill="#DC0032"/>
<path fill-rule="evenodd" clip-rule="evenodd" d="M19.8523 5.98856L21.6391 8.05929L21.8195 7.96068L20.3441 6.2515L19.8523 5.98856ZM22.6391 8.93029L22.4588 9.0289L22.9997 9.66984V9.35759L22.6391 8.93029Z" fill="#DC0032"/>
<path fill-rule="evenodd" clip-rule="evenodd" d="M19.4587 5.77492L21.4915 8.14147L21.6718 8.04286L19.9505 6.03787L19.4587 5.77492ZM22.4914 9.01247L22.3111 9.11108L22.9996 9.91636V9.60411L22.4914 9.01247Z" fill="#DC0032"/>
<path fill-rule="evenodd" clip-rule="evenodd" d="M19.0493 5.56126L21.3443 8.22363L21.5246 8.12502L19.5575 5.82421L19.0493 5.56126ZM22.3443 9.09463L22.164 9.19324L23 10.1629V9.85062L22.3443 9.09463Z" fill="#DC0032"/>
<path fill-rule="evenodd" clip-rule="evenodd" d="M18.6558 5.34761L21.1967 8.32223L21.377 8.20719L19.1476 5.61056L18.6558 5.34761ZM22.1966 9.1768L22.0163 9.27541L22.9999 10.4258V10.1136L22.1966 9.1768Z" fill="#DC0032"/>
<path fill-rule="evenodd" clip-rule="evenodd" d="M18.2456 5.13396L21.0488 8.40439L21.2291 8.28935L18.7538 5.39691L18.2456 5.13396ZM22.0651 9.25896L21.8684 9.35757L22.9995 10.6723V10.3601L22.0651 9.25896Z" fill="#DC0032"/>
<path fill-rule="evenodd" clip-rule="evenodd" d="M17.8523 4.92032L20.9014 8.48655L21.0981 8.37153L18.3605 5.18327L17.8523 4.92032ZM21.9177 9.34114L21.7374 9.43975L22.9996 10.9353V10.6066L21.9177 9.34114Z" fill="#DC0032"/>
<path fill-rule="evenodd" clip-rule="evenodd" d="M17.4586 4.70667L20.77 8.56872L20.9503 8.45368L17.9504 4.96961L17.4586 4.70667ZM21.77 9.42331L21.5896 9.52191L22.9994 11.1818V10.8695L21.77 9.42331Z" fill="#DC0032"/>
<path fill-rule="evenodd" clip-rule="evenodd" d="M17.0491 4.47659L20.6227 8.6509L20.803 8.53586L17.5573 4.75598L17.0491 4.47659ZM21.6227 9.50549L21.4424 9.6041L22.9997 11.4283V11.1161L21.6227 9.50549Z" fill="#DC0032"/>
<path fill-rule="evenodd" clip-rule="evenodd" d="M16.6554 4.26294L20.4749 8.73306L20.6553 8.63445L17.1636 4.54232L16.6554 4.26294ZM21.4749 9.58765L21.2946 9.68626L22.9994 11.6912V11.3626L21.4749 9.58765Z" fill="#DC0032"/>
<path fill-rule="evenodd" clip-rule="evenodd" d="M16.2618 4.06575L20.3273 8.81526L20.5076 8.71665L16.7536 4.3287L16.2618 4.06575ZM21.3272 9.66985L21.1469 9.76845L22.9993 11.9378V11.6255L21.3272 9.66985Z" fill="#DC0032"/>
<path fill-rule="evenodd" clip-rule="evenodd" d="M15.9998 4L20.1799 8.89742L20.3602 8.79881L16.3604 4.11504L16.262 4.06574C16.1801 4.01643 16.0981 4 15.9998 4ZM21.1799 9.75201L20.9996 9.85061L22.9995 12.1843V11.872L21.1799 9.75201Z" fill="#DC0032"/>
<path fill-rule="evenodd" clip-rule="evenodd" d="M15.9996 4C15.934 4 15.8684 4.01643 15.8029 4.03287L20.0322 8.97959L20.2289 8.88098L16.0488 4C16.0324 4 16.016 4 15.9996 4ZM21.0486 9.83418L20.8682 9.93278L22.9993 12.4472V12.1185L21.0486 9.83418Z" fill="#DC0032"/>
<path fill-rule="evenodd" clip-rule="evenodd" d="M15.8526 4.01643C15.8198 4.03287 15.7706 4.0493 15.7542 4.06574L15.6559 4.11504L19.9016 9.06176L20.0819 8.96315L15.8526 4.01643ZM20.9016 9.91635L20.7213 10.0314L22.9999 12.6937V12.3815L20.9016 9.91635Z" fill="#DC0032"/>
<path fill-rule="evenodd" clip-rule="evenodd" d="M15.6886 4.08217L15.5083 4.18077L19.754 9.14393L19.9344 9.04532L15.6886 4.08217ZM20.754 9.99852L20.5737 10.1136L22.9998 12.9403V12.628L20.754 9.99852Z" fill="#DC0032"/>
<path fill-rule="evenodd" clip-rule="evenodd" d="M15.5409 4.16435L15.3606 4.26296L19.6063 9.22611L19.7867 9.12751L15.5409 4.16435ZM20.6063 10.0807L20.426 10.1957L22.9997 13.2032V12.891L20.6063 10.0807Z" fill="#DC0032"/>
<path fill-rule="evenodd" clip-rule="evenodd" d="M15.3933 4.24651L15.213 4.34511L19.4588 9.30827L19.6391 9.20966L15.3933 4.24651ZM20.4587 10.1629L20.2784 10.2779L22.9996 13.4497V13.1375L20.4587 10.1629Z" fill="#DC0032"/>
<path fill-rule="evenodd" clip-rule="evenodd" d="M15.2454 4.32867L15.0651 4.42728L19.3108 9.39044L19.4911 9.29183L15.2454 4.32867ZM20.3108 10.245L20.1305 10.3601L22.9992 13.6962V13.384L20.3108 10.245Z" fill="#DC0032"/>
<path fill-rule="evenodd" clip-rule="evenodd" d="M15.0979 4.41084L14.9176 4.50945L19.1634 9.4726L19.3437 9.374L15.0979 4.41084ZM20.1797 10.3272L19.9994 10.4422L22.9993 13.9592V13.6469L20.1797 10.3272Z" fill="#DC0032"/>
<path fill-rule="evenodd" clip-rule="evenodd" d="M14.9506 4.47659L14.7703 4.59163L19.0324 9.55479L19.2127 9.45619L14.9506 4.47659ZM20.0324 10.4258L19.852 10.5244L22.9995 14.2057V13.8935L20.0324 10.4258Z" fill="#DC0032"/>
<path fill-rule="evenodd" clip-rule="evenodd" d="M14.8031 4.55876L14.6228 4.65737L18.885 9.63696L19.0653 9.53835L14.8031 4.55876ZM19.8849 10.508L19.7046 10.6066L22.9995 14.4686V14.14L19.8849 10.508Z" fill="#DC0032"/>
<path fill-rule="evenodd" clip-rule="evenodd" d="M14.6554 4.64095L14.4751 4.73955L18.7373 9.73558L18.9176 9.62054L14.6554 4.64095ZM19.7372 10.5902L19.5569 10.6888L22.9994 14.7152V14.4029L19.7372 10.5902Z" fill="#DC0032"/>
<path fill-rule="evenodd" clip-rule="evenodd" d="M14.5078 4.7231L14.3275 4.8217L18.5897 9.81773L18.77 9.70269L14.5078 4.7231ZM19.5896 10.6723L19.4093 10.7709L22.9993 14.9617V14.6494L19.5896 10.6723Z" fill="#DC0032"/>
<path fill-rule="evenodd" clip-rule="evenodd" d="M14.3601 4.80528L14.1798 4.90389L18.442 9.89992L18.6223 9.78488L14.3601 4.80528ZM19.4419 10.7545L19.2616 10.8531L22.9992 15.2246V14.8959L19.4419 10.7545Z" fill="#DC0032"/>
<path fill-rule="evenodd" clip-rule="evenodd" d="M14.2129 4.88745L14.0326 4.98606L18.2947 9.98209L18.4751 9.86705L14.2129 4.88745ZM19.3111 10.8367L19.1308 10.9353L22.9995 15.4711V15.1589L19.3111 10.8367Z" fill="#DC0032"/>
<path fill-rule="evenodd" clip-rule="evenodd" d="M14.0652 4.9532L13.8685 5.05181L18.1635 10.0643L18.3438 9.94923L14.0652 4.9532ZM19.1634 10.9189L18.9831 11.0175L22.9994 15.7177V15.4054L19.1634 10.9189Z" fill="#DC0032"/>
<path fill-rule="evenodd" clip-rule="evenodd" d="M13.9177 5.03536L13.7209 5.13396L18.0323 10.1629C18.0487 10.13 18.0651 10.1136 18.0979 10.0971L18.1962 10.0314L13.9177 5.03536ZM19.0159 11.001L18.8355 11.0996L22.9665 15.9313C22.9829 15.882 22.9993 15.8327 22.9993 15.7834V15.6519L19.0159 11.001Z" fill="#DC0032"/>
<path fill-rule="evenodd" clip-rule="evenodd" d="M13.7702 5.11751L13.5735 5.21611L17.9832 10.3601V10.2943C17.9832 10.245 18.016 10.1793 18.0487 10.13L13.7702 5.11751ZM18.8684 11.0832L18.7373 11.1653C18.7209 11.1653 18.7045 11.1818 18.6881 11.1818L22.8846 16.0956C22.9338 16.0299 22.9666 15.9642 22.983 15.8984L18.8684 11.0832Z" fill="#DC0032"/>
<path fill-rule="evenodd" clip-rule="evenodd" d="M13.6227 5.19969L13.426 5.2983L17.9832 10.623V10.2943L13.6227 5.19969ZM18.4094 11.0996L22.7699 16.2107C22.8191 16.1778 22.8683 16.1121 22.9175 16.0628L18.7209 11.1654C18.6553 11.1982 18.557 11.1982 18.4914 11.1654L18.4094 11.0996Z" fill="#DC0032"/>
<path fill-rule="evenodd" clip-rule="evenodd" d="M13.4749 5.28188L13.2782 5.38048L22.6221 16.2929L22.7533 16.2271C22.7696 16.2107 22.786 16.1943 22.8024 16.1778L18.5075 11.1654H18.4911L18.1141 10.9353C18.0813 10.9188 18.0649 10.886 18.0321 10.8531C17.9993 10.8038 17.9993 10.7709 17.9829 10.7381V10.5573L13.4749 5.28188Z" fill="#DC0032"/>
<path fill-rule="evenodd" clip-rule="evenodd" d="M13.3272 5.36404L13.1305 5.46265L22.4744 16.375L22.6547 16.2764L13.3272 5.36404Z" fill="#DC0032"/>
<path fill-rule="evenodd" clip-rule="evenodd" d="M13.18 5.42978L12.9833 5.52839L22.3436 16.4572L22.5239 16.3586L13.18 5.42978Z" fill="#DC0032"/>
<path fill-rule="evenodd" clip-rule="evenodd" d="M13.0328 5.51196L12.8361 5.61057L22.1964 16.5394L22.3767 16.4408L13.0328 5.51196Z" fill="#DC0032"/>
<path fill-rule="evenodd" clip-rule="evenodd" d="M12.8852 5.59412L12.6885 5.69272L22.0488 16.6215L22.2291 16.5229L12.8852 5.59412Z" fill="#DC0032"/>
<path fill-rule="evenodd" clip-rule="evenodd" d="M12.7213 5.67628L12.541 5.77489L21.9013 16.7201L22.0817 16.6051L12.7213 5.67628Z" fill="#DC0032"/>
<path fill-rule="evenodd" clip-rule="evenodd" d="M12.5735 5.75847L12.3932 5.85708L21.7535 16.8023L21.9338 16.6873L12.5735 5.75847Z" fill="#DC0032"/>
<path fill-rule="evenodd" clip-rule="evenodd" d="M12.4256 5.84064L12.2452 5.93924L21.622 16.8845L21.8023 16.7695L12.4256 5.84064Z" fill="#DC0032"/>
<path fill-rule="evenodd" clip-rule="evenodd" d="M12.2783 5.90637L12.098 6.00498L21.4747 16.9667L21.6551 16.8516L12.2783 5.90637Z" fill="#DC0032"/>
<path fill-rule="evenodd" clip-rule="evenodd" d="M12.1311 5.98856L11.9508 6.08716L21.3275 17.0489L21.5078 16.9502L12.1311 5.98856Z" fill="#DC0032"/>
<path fill-rule="evenodd" clip-rule="evenodd" d="M11.9833 6.07071L11.803 6.16932L16.3602 11.494L16.5077 11.5926C16.5733 11.6255 16.6389 11.7077 16.6389 11.7898V11.8063L21.1797 17.131L21.36 17.0324L11.9833 6.07071Z" fill="#DC0032"/>
<path fill-rule="evenodd" clip-rule="evenodd" d="M11.8361 6.15289L11.6558 6.25149L15.9343 11.264L16.4753 11.5598L11.8361 6.15289ZM16.6228 11.7405C16.6228 11.757 16.6392 11.7734 16.6392 11.7899V12.0692L21.0325 17.2132L21.2128 17.1146L16.6228 11.7405Z" fill="#DC0032"/>
<path fill-rule="evenodd" clip-rule="evenodd" d="M11.6884 6.23506L11.5081 6.33367L15.5079 11.0175L16.0489 11.3133L11.6884 6.23506ZM16.639 12.0035V12.3158L20.9012 17.2954L21.0815 17.1968L16.639 12.0035Z" fill="#DC0032"/>
<path fill-rule="evenodd" clip-rule="evenodd" d="M11.5408 6.31721L11.3605 6.41582L15.0981 10.7709L15.6226 11.0667L11.5408 6.31721ZM16.639 12.25V12.5787L20.7536 17.3775L20.9339 17.2789L16.639 12.25Z" fill="#DC0032"/>
<path fill-rule="evenodd" clip-rule="evenodd" d="M11.3931 6.38297L11.2128 6.48157L14.6717 10.5244L15.1962 10.8367L11.3931 6.38297ZM16.6388 12.513V12.8252L20.6059 17.4597L20.7862 17.3611L16.6388 12.513Z" fill="#DC0032"/>
<path fill-rule="evenodd" clip-rule="evenodd" d="M11.2459 6.46515L11.0656 6.56376L14.2458 10.2779L14.7703 10.5902L11.2459 6.46515ZM16.6391 12.7595V13.0717L20.4587 17.5419L20.639 17.4433L16.6391 12.7595Z" fill="#DC0032"/>
<path fill-rule="evenodd" clip-rule="evenodd" d="M11.0983 6.54732L10.918 6.64592L13.8195 10.0478L14.3441 10.3436L11.0983 6.54732ZM16.6391 13.006V13.3347L20.3111 17.6405L20.4914 17.5254L16.6391 13.006Z" fill="#DC0032"/>
<path fill-rule="evenodd" clip-rule="evenodd" d="M10.9506 6.62947L10.7703 6.72808L13.3931 9.80129L13.9177 10.0971L10.9506 6.62947ZM16.6389 13.2689V13.5812L20.1798 17.7226L20.3601 17.6076L16.6389 13.2689Z" fill="#DC0032"/>
<path fill-rule="evenodd" clip-rule="evenodd" d="M10.8031 6.71167L10.6228 6.81028L12.967 9.5548L13.5079 9.85062L10.8031 6.71167ZM16.639 13.5155V13.8277L20.0323 17.8048L20.2126 17.6898L16.639 13.5155Z" fill="#DC0032"/>
<path fill-rule="evenodd" clip-rule="evenodd" d="M10.6555 6.79381L10.4752 6.89241L12.5407 9.30825L13.0817 9.62051L10.6555 6.79381ZM14.9505 12.1185L15.3767 12.6116V12.4308C15.3767 12.3979 15.3439 12.3486 15.3111 12.3322L14.9505 12.1185ZM16.6389 13.762V14.0907L19.8847 17.887L20.065 17.7719L16.6389 13.762Z" fill="#DB0032"/>
<path fill-rule="evenodd" clip-rule="evenodd" d="M10.5081 6.85956L10.3278 6.95816L12.1146 9.06175L12.6555 9.374L10.5081 6.85956ZM14.5243 11.872L15.3768 12.8581V12.5458L15.0653 12.1843L14.5243 11.872ZM16.639 14.0249V14.3372L19.7373 17.9691L19.9176 17.8705L16.639 14.0249Z" fill="#DC0032"/>
<path fill-rule="evenodd" clip-rule="evenodd" d="M10.3609 6.94174L10.1805 7.04035L11.7051 8.83168L12.2297 9.1275L10.3609 6.94174ZM14.0984 11.6419L15.3771 13.121V12.8088L14.6394 11.9378L14.0984 11.6419ZM16.6393 14.2715V14.5837L19.59 18.0513L19.7704 17.9527L16.6393 14.2715Z" fill="#DC0032"/>
<path fill-rule="evenodd" clip-rule="evenodd" d="M10.2133 7.02391L10.033 7.12252L11.2788 8.58516L11.8034 8.88098L10.2133 7.02391ZM13.6886 11.3954L15.377 13.3676V13.0553L14.2131 11.6912L13.6886 11.3954ZM16.6393 14.5344V14.8466L19.4588 18.1335L19.6392 18.0349L16.6393 14.5344Z" fill="#DC0032"/>
<path fill-rule="evenodd" clip-rule="evenodd" d="M10.0656 7.10606L9.88525 7.20467L10.8524 8.33865L11.377 8.63444L10.0656 7.10606ZM13.2622 11.1489L15.3769 13.6141V13.3018L13.7867 11.4611L13.2622 11.1489ZM16.6391 14.7809V15.0931L19.3112 18.2157L19.4915 18.117L16.6391 14.7809Z" fill="#DC0032"/>
<path fill-rule="evenodd" clip-rule="evenodd" d="M9.91811 7.18826L9.73779 7.28687L10.4263 8.09216L10.9509 8.40441L9.91811 7.18826ZM12.836 10.9024L15.3769 13.877V13.5648L13.3606 11.2147L12.836 10.9024ZM16.6392 15.0274V15.3397L19.1637 18.2978L19.344 18.1992L16.6392 15.0274Z" fill="#DC0032"/>
<path fill-rule="evenodd" clip-rule="evenodd" d="M9.77053 7.27043L9.59021 7.36904L10 7.84564L10.541 8.15789L9.77053 7.27043ZM12.4098 10.6723L15.3769 14.1235V13.8113L12.9344 10.9682L12.4098 10.6723ZM16.6391 15.2904V15.6026L19.0161 18.38L19.1964 18.2814L16.6391 15.2904Z" fill="#DC0032"/>
<path fill-rule="evenodd" clip-rule="evenodd" d="M9.62286 7.33617L9.42615 7.43477L9.57368 7.61555L10.1146 7.91137L9.62286 7.33617ZM11.9834 10.4258L15.3768 14.3865V14.0578L12.5244 10.7216L11.9834 10.4258ZM16.639 15.5369V15.8491L18.8684 18.4786L19.0488 18.3636L16.639 15.5369Z" fill="#DC0032"/>
<path fill-rule="evenodd" clip-rule="evenodd" d="M9.47522 7.41835L9.36047 7.48409L9.68833 7.66487L9.47522 7.41835ZM11.5571 10.1793L15.3767 14.633V14.3208L12.0981 10.4916L11.5571 10.1793ZM16.6389 15.7834V16.1121L18.7372 18.5608L18.9175 18.4458L16.6389 15.7834Z" fill="#DC0032"/>
<path fill-rule="evenodd" clip-rule="evenodd" d="M11.1476 9.93277L15.3769 14.8795V14.5672L11.6722 10.245L11.1476 9.93277ZM16.6392 16.0463V16.3586L18.5899 18.643L18.7703 18.5279L16.6392 16.0463Z" fill="#DC0032"/>
<path fill-rule="evenodd" clip-rule="evenodd" d="M10.7208 9.7027L15.3764 15.1424V14.8138L11.2454 9.99852L10.7208 9.7027ZM16.6386 16.2929V16.6051L18.4419 18.7251L18.6222 18.6101L16.6386 16.2929Z" fill="#DC0032"/>
<path fill-rule="evenodd" clip-rule="evenodd" d="M10.2949 9.45618L15.3767 15.389V15.0767L10.8195 9.752L10.2949 9.45618ZM16.6389 16.5394V16.8681L18.2946 18.8073L18.475 18.7087L16.6389 16.5394Z" fill="#DC0032"/>
<path fill-rule="evenodd" clip-rule="evenodd" d="M9.86865 9.20966L15.3767 15.6355V15.3232L10.3932 9.52191L9.86865 9.20966ZM16.6389 16.8023V17.1146L18.147 18.8895L18.3274 18.7909L16.6389 16.8023Z" fill="#DB0032"/>
<path fill-rule="evenodd" clip-rule="evenodd" d="M9.4425 8.96315L15.3767 15.8984V15.5862L9.96708 9.2754L9.4425 8.96315ZM16.639 17.0488V17.3611L18.016 18.9717L18.1963 18.873L16.639 17.0488Z" fill="#DA0032"/>
<path fill-rule="evenodd" clip-rule="evenodd" d="M9.01636 8.73306L15.3768 16.1449V15.8327L9.55732 9.02888L9.01636 8.73306ZM16.639 17.2954V17.624L17.8685 19.0538L18.0488 18.9552L16.639 17.2954Z" fill="#D90032"/>
<path fill-rule="evenodd" clip-rule="evenodd" d="M9 8.71663V8.94671L15.3768 16.3915V16.0792L9.13114 8.78237L9 8.71663ZM16.6391 17.5583V17.7555C16.6391 17.7884 16.6227 17.8212 16.6063 17.8377L17.721 19.136L17.9013 19.0374L16.6391 17.5583Z" fill="#D80032"/>
<path fill-rule="evenodd" clip-rule="evenodd" d="M9 8.88098V9.20967L15.3768 16.6544V16.3422L9 8.88098ZM16.6227 17.8048C16.6063 17.8706 16.5571 17.9363 16.5079 17.9527L16.4915 17.9692L17.5735 19.2182L17.7538 19.1196L16.6227 17.8048Z" fill="#D70032"/>
<path fill-rule="evenodd" clip-rule="evenodd" d="M9 9.14392V9.45618L15.3768 16.9009V16.5887L9 9.14392ZM16.5243 17.9363C16.5243 17.9527 16.5243 17.9527 16.5079 17.9527L16.344 18.0513L17.4259 19.3003L17.6062 19.2017L16.5243 17.9363Z" fill="#D60032"/>
<path fill-rule="evenodd" clip-rule="evenodd" d="M9 9.39044V9.7027L15.3768 17.1474V16.8352L9 9.39044ZM16.3932 18.0184L16.1965 18.1335L17.2948 19.3989L17.4751 19.2839L16.3932 18.0184Z" fill="#D50032"/>
<path fill-rule="evenodd" clip-rule="evenodd" d="M9 9.6534V9.96565L15.3768 17.4104V17.0981L9 9.6534ZM16.2457 18.1006L16.1309 18.1664C16.0981 18.1828 16.0653 18.1828 16.0325 18.1828L17.1472 19.4811L17.3276 19.3661L16.2457 18.1006Z" fill="#D40032"/>
<path fill-rule="evenodd" clip-rule="evenodd" d="M9 9.89992V10.2122L15.3768 17.6569V17.3446L9 9.89992ZM15.7375 18.1006L16.9997 19.5633L17.18 19.4483L16.0817 18.1828C16.0653 18.1828 16.0325 18.1992 16.0162 18.1992H15.9998C15.9506 18.1992 15.9178 18.1828 15.885 18.1664L15.7375 18.1006Z" fill="#D30032"/>
<path fill-rule="evenodd" clip-rule="evenodd" d="M9 10.1464V10.4751L16.8522 19.6455L17.0325 19.5304L15.8522 18.1499L15.4916 17.9527C15.426 17.9198 15.3768 17.8377 15.3768 17.7555V17.5912L9 10.1464Z" fill="#D20032"/>
<path fill-rule="evenodd" clip-rule="evenodd" d="M9 10.4094V10.7216L16.7046 19.7276L16.885 19.629L9 10.4094Z" fill="#D10032"/>
<path fill-rule="evenodd" clip-rule="evenodd" d="M9 10.6559V10.9682L16.5571 19.8098L16.7374 19.7112L9 10.6559Z" fill="#D00032"/>
<path fill-rule="evenodd" clip-rule="evenodd" d="M9 10.9024V11.2311L16.426 19.892L16.6063 19.7934L9 10.9024Z" fill="#CF0032"/>
<path fill-rule="evenodd" clip-rule="evenodd" d="M9 11.1654V11.4776L16.2784 19.9741L16.4587 19.8755L9 11.1654Z" fill="#CE0032"/>
<path fill-rule="evenodd" clip-rule="evenodd" d="M9 11.4119V11.7241L16.1145 20.0399C16.1637 20.0235 16.2129 20.007 16.262 19.9906L16.3112 19.9577L9 11.4119Z" fill="#CD0032"/>
<path fill-rule="evenodd" clip-rule="evenodd" d="M9 11.6584V11.9871L15.9014 20.0399C15.9342 20.0399 15.967 20.0399 15.9998 20.0399C16.0489 20.0399 16.0981 20.0399 16.1473 20.0234L9 11.6584Z" fill="#CC0032"/>
<path fill-rule="evenodd" clip-rule="evenodd" d="M9 11.9214V12.2336L15.5244 19.8591L15.7539 19.9906C15.803 20.0235 15.885 20.0399 15.9506 20.0399L9 11.9214Z" fill="#CB0032"/>
<path fill-rule="evenodd" clip-rule="evenodd" d="M9 12.1678V12.4801L15.0981 19.6126L15.6391 19.9249L9 12.1678Z" fill="#CA0032"/>
<path fill-rule="evenodd" clip-rule="evenodd" d="M9 12.4308V12.743L14.6719 19.3661L15.2129 19.6783L9 12.4308Z" fill="#C90032"/>
<path fill-rule="evenodd" clip-rule="evenodd" d="M9 12.6773V12.9896L14.2457 19.1196L14.7703 19.4318L9 12.6773Z" fill="#C80033"/>
<path fill-rule="evenodd" clip-rule="evenodd" d="M9 12.9238V13.2361L13.8195 18.873L14.3441 19.1853L9 12.9238Z" fill="#C70033"/>
<path fill-rule="evenodd" clip-rule="evenodd" d="M9 13.1868V13.499L13.3769 18.6101L13.9179 18.9223L9 13.1868Z" fill="#C60033"/>
<path fill-rule="evenodd" clip-rule="evenodd" d="M9 13.4333V13.7455L12.9507 18.3636L13.4916 18.6758L9 13.4333Z" fill="#C50033"/>
<path fill-rule="evenodd" clip-rule="evenodd" d="M9 13.6798V13.992L12.5245 18.117L13.0654 18.4293L9 13.6798Z" fill="#C40033"/>
<path fill-rule="evenodd" clip-rule="evenodd" d="M9 13.9427V14.255L12.0983 17.8705L12.6392 18.1828L9 13.9427Z" fill="#C30033"/>
<path fill-rule="evenodd" clip-rule="evenodd" d="M9 14.1893V14.5015L11.672 17.624L12.213 17.9363L9 14.1893Z" fill="#C20033"/>
<path fill-rule="evenodd" clip-rule="evenodd" d="M9 14.4358V14.7645L11.2458 17.3775L11.7704 17.6898L9 14.4358Z" fill="#C10033"/>
<path fill-rule="evenodd" clip-rule="evenodd" d="M9 14.6987V15.011L10.8032 17.131L11.3442 17.4433L9 14.6987Z" fill="#C00033"/>
<path fill-rule="evenodd" clip-rule="evenodd" d="M9 14.9452V15.2575L10.377 16.8845L10.918 17.1803L9 14.9452Z" fill="#BF0033"/>
<path fill-rule="evenodd" clip-rule="evenodd" d="M9 15.1918V15.5204L9.95079 16.6216L10.4918 16.9338L9 15.1918Z" fill="#BE0033"/>
<path fill-rule="evenodd" clip-rule="evenodd" d="M9 15.4547V15.767L9.52457 16.375L10.0655 16.6873L9 15.4547Z" fill="#BD0033"/>
<path fill-rule="evenodd" clip-rule="evenodd" d="M9 15.7012V15.7834C9 15.9478 9.11475 16.145 9.24589 16.2271L9.63932 16.4408L9 15.7012Z" fill="#BC0033"/>
<path fill-rule="evenodd" clip-rule="evenodd" d="M9.09802 16.0792C9.13081 16.1121 9.1472 16.1449 9.17999 16.1614L9.09802 16.0792Z" fill="#BB0033"/>
<path fill-rule="evenodd" clip-rule="evenodd" d="M12.6133 27.152C12.0529 27.2979 11.3231 27.3587 10.6976 27.3587C9.06862 27.3587 8 26.5684 8 25.1216C8 23.7477 9.00346 22.8602 10.463 22.8602C10.7888 22.8602 11.1407 22.8967 11.3492 22.9939V21H12.6133V27.152ZM11.3492 24.0152C11.1537 23.9301 10.88 23.8815 10.5673 23.8815C9.79843 23.8815 9.29017 24.3192 9.29017 25.0851C9.29017 25.8997 9.83752 26.3617 10.7367 26.3617C10.8931 26.3617 11.1407 26.3617 11.3492 26.3131V24.0152ZM23 27.152C22.4396 27.2979 21.7098 27.3587 21.0712 27.3587C19.4552 27.3587 18.3736 26.5684 18.3736 25.1216C18.3736 23.7477 19.377 22.8602 20.8367 22.8602C21.1755 22.8602 21.5143 22.8967 21.7228 22.9939V21H23V27.152ZM21.7228 24.0152C21.5274 23.9301 21.2667 23.8815 20.9539 23.8815C20.172 23.8815 19.6638 24.3192 19.6638 25.0851C19.6638 25.8997 20.2241 26.3617 21.1234 26.3617C21.2797 26.3617 21.5143 26.3617 21.7228 26.3131V24.0152ZM14.6073 24.0152C14.8158 23.9301 15.1155 23.9058 15.3631 23.9058C16.1451 23.9058 16.6794 24.3192 16.6794 25.0608C16.6794 25.9362 16.0799 26.3374 15.2849 26.3495V27.3587H15.3501C16.9922 27.3587 17.9696 26.5198 17.9696 25.0243C17.9696 23.6626 16.927 22.8602 15.3892 22.8602C14.6073 22.8602 13.8384 23.0304 13.3301 23.2249V29H14.6073V24.0152Z" fill="#3F3F42"/>
</svg>
