<svg width="32" height="32" viewBox="0 0 32 32" fill="none" xmlns="http://www.w3.org/2000/svg">
<path d="M0 8C0 3.58172 3.58172 0 8 0H24C28.4183 0 32 3.58172 32 8V24C32 28.4183 28.4183 32 24 32H8C3.58172 32 0 28.4183 0 24V8Z" fill="#061AB1"/>
<g clip-path="url(#clip0_3001_3210)">
<path d="M26.5163 19.9652C27.2425 19.9652 27.831 19.3761 27.831 18.6495C27.831 17.9229 27.2425 17.3338 26.5163 17.3338C25.7904 17.3338 25.2017 17.9229 25.2017 18.6495C25.2017 19.3761 25.7904 19.9652 26.5163 19.9652Z" fill="#FFD100"/>
<path d="M7.78119 15.7265V17.448H9.21222C9.00315 17.7763 8.5317 17.9513 8.21212 17.9513C7.13494 17.9513 6.59634 17.3368 6.59634 16.0968C6.59634 14.7275 7.30718 14.0269 8.7184 14.0269C9.27853 14.0269 10.0112 14.1669 10.7974 14.4151V12.3559C10.571 12.2589 10.2265 12.1835 9.78481 12.1078C9.33236 12.0323 8.93373 12 8.58892 12C7.18847 12 6.07899 12.3774 5.24972 13.132C4.42016 13.8868 4 14.9002 4 16.1833C4 17.3584 4.32327 18.2856 4.96952 18.965C5.61577 19.6549 6.4884 20 7.58711 20C8.69035 20 9.70407 19.4269 10.0307 18.6993L10.0237 19.8704H11.6196V15.7265H7.78119Z" fill="white"/>
<path d="M12.416 19.8704V12.1293H14.8936V17.8543H17.5974V19.8704H12.416Z" fill="white"/>
<path d="M18.5013 19.6765V17.5634C18.8676 17.6819 19.2985 17.7789 19.7833 17.8654C20.2681 17.9516 20.6882 17.9947 21.0438 17.9947C21.647 17.9947 21.9595 17.8438 21.9595 17.5742C21.9595 17.4018 21.8626 17.3153 21.4209 17.2183L20.559 17.0244C19.0832 16.69 18.3939 15.9463 18.3939 14.6847C18.3939 13.8545 18.6849 13.1969 19.2558 12.7117C19.8261 12.2371 20.6234 12 21.6252 12C22.3145 12 23.3704 12.1401 24.0168 12.302V14.3181C23.6826 14.2319 23.2843 14.1457 22.7995 14.07C22.3148 13.9945 21.9377 13.9622 21.6578 13.9622C21.1299 13.9622 20.8282 14.1131 20.8282 14.3827C20.8282 14.5444 20.9681 14.6524 21.2591 14.7278L22.2609 14.9649C23.726 15.31 24.4045 16.0645 24.4045 17.3476C24.4045 18.1671 24.1028 18.8139 23.5104 19.2883C22.918 19.7627 22.0992 19.9997 21.0543 19.9997C20.0632 19.9997 19.0614 19.8596 18.5013 19.6765Z" fill="white"/>
</g>
<defs>
<clipPath id="clip0_3001_3210">
<rect width="24" height="8" fill="white" transform="translate(4 12)"/>
</clipPath>
</defs>
</svg>
