<svg preserveAspectRatio="xMidYMid meet" width="100%" height="100%" overflow="visible" style="display: block;" viewBox="0 0 12.25 12.832" fill="none" xmlns="http://www.w3.org/2000/svg">
<path id="Union" d="M5.83301 0C6.13923 0 6.44064 0.0797719 6.70605 0.232422L10.7891 2.56543L10.791 2.56738L10.8887 2.62793C11.111 2.77654 11.2973 2.97462 11.4316 3.20703C11.5851 3.47262 11.6657 3.77431 11.666 4.08105V5.24805C11.666 5.57019 11.4052 5.83203 11.083 5.83203C10.7609 5.83203 10.5 5.57019 10.5 5.24805V4.40723L8.75488 5.40918C8.74378 5.41577 8.73315 5.42289 8.72168 5.42871L6.41602 6.75293V11.4189L7.29395 10.9189C7.57372 10.7596 7.93025 10.8571 8.08984 11.1367C8.24925 11.4165 8.15171 11.773 7.87207 11.9326L6.70508 12.5977V12.5967C6.44401 12.7467 6.14862 12.8275 5.84766 12.8301C5.84278 12.8302 5.83792 12.832 5.83301 12.832C5.82777 12.832 5.82259 12.8302 5.81738 12.8301C5.51643 12.8274 5.22095 12.7478 4.95996 12.5977L0.876953 10.2646L0.875 10.2627C0.609302 10.1093 0.387939 9.88866 0.234375 9.62305C0.100011 9.39054 0.021689 9.13021 0.00390625 8.86328L0 8.74902V4.08105L0.00390625 3.96582C0.0217867 3.69919 0.10017 3.43929 0.234375 3.20703C0.387928 2.94148 0.609352 2.72078 0.875 2.56738L0.876953 2.56543L4.95996 0.233398C5.22548 0.0805886 5.52663 7.333e-08 5.83301 0ZM1.16602 8.74805L1.17188 8.82422C1.18193 8.89959 1.20587 8.97279 1.24414 9.03906C1.29488 9.12684 1.36851 9.19989 1.45605 9.25098L5.25 11.418V6.75195L1.16602 4.40723V8.74805ZM9.50391 6.00293C9.71746 5.78938 10.0551 5.77606 10.2842 5.96289L10.3291 6.00293L12.0791 7.75293C12.1328 7.8067 12.1756 7.87106 12.2051 7.94238C12.2108 7.95635 12.2141 7.97107 12.2188 7.98535C12.2372 8.04218 12.25 8.10205 12.25 8.16504C12.25 8.22771 12.237 8.28717 12.2188 8.34375C12.2141 8.35805 12.2108 8.37274 12.2051 8.38672C12.1756 8.45837 12.133 8.52317 12.0791 8.57715L10.3291 10.3271C10.1013 10.555 9.73171 10.555 9.50391 10.3271C9.27635 10.0994 9.27635 9.73069 9.50391 9.50293L10.2588 8.74805H7.58301L7.52344 8.74512C7.22936 8.71517 7 8.46702 7 8.16504C7 7.86306 7.22936 7.6149 7.52344 7.58496L7.58301 7.58203H10.2588L9.50391 6.82715L9.46387 6.7832C9.27705 6.55415 9.29052 6.21651 9.50391 6.00293ZM1.75977 3.40332L5.83301 5.74219L7.28223 4.90918L3.20605 2.57715L1.75977 3.40332ZM5.83301 1.16602C5.73063 1.16602 5.62968 1.19296 5.54102 1.24414L5.53906 1.24512L4.38184 1.90527L8.45508 4.23633L9.90527 3.40332L6.12695 1.24512L6.125 1.24414C6.03633 1.19296 5.93539 1.16602 5.83301 1.16602Z" fill="#191919"/>
</svg>
