<svg preserveAspectRatio="xMidYMid meet" width="100%" height="100%" overflow="visible" style="display: block;" viewBox="0 0 13.9087 13.905" fill="none" xmlns="http://www.w3.org/2000/svg">
<g id="user-single-neutral--close-geometric-human-person-single-user">
<path id="vector" d="M9.43071 3.80924C9.43056 2.44182 8.32161 1.33333 6.95415 1.33333C5.58681 1.33348 4.47839 2.44191 4.47824 3.80924C4.47824 5.17671 5.58672 6.28566 6.95415 6.28581C8.32171 6.28581 9.43071 5.1768 9.43071 3.80924ZM10.764 3.80924C10.764 5.91318 9.05809 7.61914 6.95415 7.61914C4.85034 7.61899 3.1449 5.91309 3.1449 3.80924C3.14505 1.70553 4.85043 0.000150867 6.95415 3.97364e-08C9.05799 3.97364e-08 10.7639 1.70544 10.764 3.80924Z" fill="white"/>
<path id="vector_2" d="M6.95443 8.38095C10.0654 8.381 12.7313 10.2808 13.8574 12.9812C13.9432 13.1869 13.9203 13.4221 13.7969 13.6075C13.6733 13.793 13.465 13.905 13.2422 13.905H0.666667C0.44373 13.905 0.235615 13.793 0.111979 13.6075C-0.0115539 13.422 -0.0343463 13.1869 0.0514323 12.9812C1.17764 10.2809 3.84345 8.38095 6.95443 8.38095ZM6.95443 9.71429C4.77117 9.71429 2.85336 10.8538 1.76367 12.5717H12.1452C11.0556 10.8537 9.13769 9.71433 6.95443 9.71429Z" fill="white"/>
</g>
</svg>
