<svg preserveAspectRatio="xMidYMid meet" width="100%" height="100%" overflow="visible" style="display: block;" viewBox="0 0 10.2323 14" fill="none" xmlns="http://www.w3.org/2000/svg">
<g id="Group 3">
<path id="Vector" d="M5.71944 0C8.06428 0.0433595 9.9299 1.95889 9.88606 4.27826C9.84334 6.53662 8.00262 8.35735 5.71944 8.39961H0V0H5.71944ZM7.13445 4.20072C7.13445 3.4276 6.50106 2.80036 5.71944 2.79962H3.5414C2.75942 2.82461 2.14609 3.47206 2.17135 4.24519C2.1955 4.9834 2.79508 5.57647 3.5414 5.60035H5.71944C6.50069 5.59962 7.1337 4.97348 7.13445 4.20072Z" fill="#3B3E4A"/>
<path id="Vector_2" fill-rule="evenodd" clip-rule="evenodd" d="M3.58563 2.79926C4.36798 2.79853 5.00286 3.42503 5.0036 4.19889C5.00434 4.97275 4.37095 5.60072 3.5886 5.60146C2.80624 5.60219 2.17137 4.97569 2.17063 4.20183C2.17063 4.20073 2.17063 4.19999 2.17063 4.19889C2.17063 3.42577 2.80401 2.79926 3.58563 2.79926Z" fill="#EF4A23"/>
<path id="Vector_3" d="M6.0649 11.2004C6.84688 11.1754 7.46021 10.5279 7.43495 9.75481C7.4108 9.0166 6.81122 8.42353 6.0649 8.39965H4.29735V5.60039H6.0649C8.40973 5.64375 10.2754 7.55928 10.2315 9.87865C10.1888 12.137 8.34807 13.9577 6.0649 14H4.29735V11.2007H6.0649V11.2004Z" fill="#EF4A23"/>
<path id="Vector_4" fill-rule="evenodd" clip-rule="evenodd" d="M6.0649 5.60039H4.29735V8.39964H5.71978C7.01219 8.40038 8.16418 7.81062 8.96845 6.80967C8.17978 6.02994 7.18011 5.59928 6.0649 5.60002V5.60039Z" fill="#B12F25"/>
</g>
</svg>
