<svg preserveAspectRatio="xMidYMid meet" width="100%" height="100%" overflow="visible" style="display: block;" viewBox="0 0 13.8018 14" fill="none" xmlns="http://www.w3.org/2000/svg">
<g id="Group 5">
<path id="Vector" d="M0 7.22685V14H6.35775C11.2778 14 13.8018 11.5694 13.8018 6.67593V0H7.444C2.52393 0 0 2.43056 0 7.22685Z" fill="#12B9E6"/>
<path id="Vector_2" d="M1.43773 9.36575V5.6389C1.43773 5.37964 1.56553 5.25001 1.85306 5.25001H3.48244C4.12141 5.25001 4.63258 5.76853 4.63258 6.44908C4.63258 6.77316 4.53674 7.06483 4.34505 7.29168C4.53674 7.51853 4.63258 7.77779 4.63258 8.13427C4.63258 8.81483 4.15335 9.33334 3.48244 9.33334H1.85306L1.43773 9.36575ZM2.17255 6.9352H3.45049C3.70608 6.9352 3.83387 6.70834 3.83387 6.48149C3.83387 6.22223 3.70608 6.02779 3.45049 6.02779H2.17255V6.9352ZM3.45049 8.62038C3.70608 8.62038 3.83387 8.39353 3.83387 8.16668C3.83387 7.93983 3.70608 7.71297 3.45049 7.71297H2.17255V8.65279H3.45049V8.62038Z" fill="white"/>
<path id="Vector_3" d="M8.01903 9.04167C7.6676 9.33334 7.28422 9.46297 6.83694 9.46297C6.35771 9.46297 5.97433 9.33334 5.6229 9.04167C5.27146 8.75001 5.07977 8.36112 5.07977 7.93982V6.70834C5.07977 6.28705 5.23951 5.93056 5.6229 5.60649C5.94238 5.31482 6.35771 5.18519 6.83694 5.18519C7.28422 5.18519 7.69955 5.31482 8.01903 5.60649C8.37047 5.89816 8.56216 6.25464 8.56216 6.70834V7.93982C8.56216 8.36112 8.37047 8.7176 8.01903 9.04167ZM6.83694 8.7176C7.38006 8.7176 7.82734 8.36112 7.82734 7.93982V6.70834C7.82734 6.28705 7.34811 5.93056 6.83694 5.93056C6.29381 5.93056 5.84653 6.28705 5.84653 6.70834V7.93982C5.84653 8.36112 6.29381 8.7176 6.83694 8.7176Z" fill="white"/>
<path id="Vector_4" d="M8.84973 8.91205L9.80819 7.29168L8.84973 5.67131C8.72194 5.47686 8.75389 5.25001 9.04142 5.25001H9.45675L10.4791 6.9352H10.543C10.8305 6.44908 11.1181 5.99538 11.4056 5.50927C11.5015 5.34723 11.6612 5.25001 11.8209 5.25001H12.396L11.15 7.29168L12.396 9.33334H11.8209C11.6293 9.33334 11.5015 9.23612 11.4056 9.07408L10.543 7.64816H10.5111C10.1596 8.19908 9.84014 8.78242 9.4887 9.33334H9.07337C8.78583 9.36575 8.72194 9.1389 8.84973 8.91205Z" fill="white"/>
</g>
</svg>
