<svg preserveAspectRatio="xMidYMid meet" width="100%" height="100%" overflow="visible" style="display: block;" viewBox="0 0 7 12" fill="none" xmlns="http://www.w3.org/2000/svg">
<path id="Tamburi-Logo" d="M3.86862 0V8.9352C3.86862 9.2859 3.94725 9.56036 4.13596 9.72808C4.32468 9.89581 4.56057 9.98729 4.85936 9.98729C5.12671 9.98729 5.3626 9.97205 5.59849 9.91106C5.83438 9.85006 6.49488 9.62135 6.73077 9.54511V11.4206C6.47915 11.5426 5.75575 11.8018 5.39405 11.878C5.01662 11.9543 4.62347 12 4.19887 12C3.78999 12 3.39684 11.9543 3.03514 11.8628C2.68916 11.7713 2.37464 11.6036 2.1073 11.3748C1.83995 11.1461 1.63551 10.8259 1.47825 10.4295C1.33672 10.033 1.25809 9.52986 1.25809 8.9352V4.29987H0V3.21728L1.4468 2.36341L2.20165 0H3.86862ZM7 2.29787V4.34043H4.84615V2.29787H7Z" fill="white"/>
</svg>
